<?xml version="1.0" standalone="no"?>
<!DOCTYPE svg PUBLIC "-//W3C//DTD SVG 20010904//EN"
 "http://www.w3.org/TR/2001/REC-SVG-20010904/DTD/svg10.dtd">
<svg version="1.0" xmlns="http://www.w3.org/2000/svg"
 width="920.000000pt" height="512.000000pt" viewBox="0 0 920.000000 512.000000"
 preserveAspectRatio="xMidYMid meet">
<metadata>
Created by potrace 1.16, written by Peter Selinger 2001-2019
</metadata>
<g transform="translate(0.000000,512.000000) scale(0.100000,-0.100000)"
fill="#000000" stroke="none">
<path d="M3376 3837 c-1316 -441 -1241 -411 -1239 -492 2 -71 9 -75 308 -175
151 -50 277 -95 279 -99 3 -4 -13 -34 -35 -67 -77 -117 -127 -268 -156 -481
-17 -121 -18 -124 -50 -146 -77 -51 -124 -169 -103 -261 6 -27 17 -60 25 -75
15 -30 89 -101 105 -101 15 0 12 -37 -10 -145 -57 -277 -162 -478 -372 -708
-105 -115 -106 -107 22 -182 114 -67 238 -118 286 -118 139 0 306 183 366 401
18 66 21 104 21 267 0 167 -24 463 -39 487 -3 5 9 22 26 39 52 53 74 105 74
184 1 82 -19 130 -76 187 -44 44 -46 59 -23 194 48 282 141 415 373 533 193
98 1047 438 1323 526 110 35 117 36 151 22 47 -20 73 -60 72 -111 -2 -57 -39
-86 -160 -126 -266 -88 -1248 -476 -1252 -495 -3 -13 1263 -435 1304 -435 17
0 572 181 1233 401 1303 435 1232 407 1234 484 2 81 77 51 -1239 492 -659 221
-1210 401 -1224 401 -14 0 -565 -180 -1224 -401z"/>
<path d="M5400 2459 c-614 -205 -755 -249 -800 -249 -45 0 -186 43 -790 245
-404 135 -738 241 -743 236 -13 -13 -36 -159 -36 -226 0 -58 1 -61 38 -87 83
-57 141 -183 141 -308 0 -81 -18 -137 -67 -208 l-36 -53 39 -41 c107 -111 342
-222 624 -293 386 -97 909 -120 1355 -59 451 62 842 223 979 404 74 97 75 108
76 523 0 343 -1 367 -17 366 -10 0 -353 -113 -763 -250z"/>
</g>
</svg>
